<?xml version="1.0" encoding="UTF-8" standalone="no"?>
<svg width="5557px" height="503px" viewBox="0 0 5557 503" version="1.1" xmlns="http://www.w3.org/2000/svg" xmlns:xlink="http://www.w3.org/1999/xlink">
    <!-- Generator: Sketch 47.1 (45422) - http://www.bohemiancoding.com/sketch -->
    <title>Group</title>
    <desc>Created with Sketch.</desc>
    <defs></defs>
    <g id="Page-1" stroke="none" stroke-width="1" fill="none" fill-rule="evenodd">
        <g id="Group" transform="translate(1.000000, 1.000000)" stroke="#CBBFD9" fill-rule="nonzero">
            <polygon id="Shape" fill="#CBBFD9" points="260 81 330 121 330 201 260 241 190 201 180.023644 121"></polygon>
            <polygon id="Shape" fill="#EAE4F1" points="475 81 545 121 545 201 475 241 410 201 410 121"></polygon>
            <polygon id="Shape" fill="#CBBFD9" points="695 81 765 121 765 201 695 241 625 201 625 121"></polygon>
            <polygon id="Shape" fill="#EAE4F1" points="915 81 985 121 985 201 915 241 845 201 845 121"></polygon>
            <polygon id="Shape" fill="#EAE4F1" points="1130 81 1200 121 1200 201 1130.19172 241 1065 201 1065 121"></polygon>
            <polygon id="Shape" fill="#D6CCE1" points="1350 81 1420 121 1420 201 1350 241 1280 201 1280 121"></polygon>
            <polygon id="Shape" fill="#CBBFD9" points="1570 81 1640 121 1640 183.606718 1574.10417 241 1500 201 1500 121"></polygon>
            <polygon id="Shape" fill="#EAE4F1" points="1785 81 1855 121 1855 201 1785 241 1720 201 1720 121"></polygon>
            <polygon id="Shape" fill="#D6CCE1" points="2017.99683 81 2075 121 2075 201 2007.82177 241 1935 220.825293 1935 121"></polygon>
            <polygon id="Shape" fill="#EAE4F1" points="2225 81 2295 121 2295 201 2225 241 2155 201 2155 121"></polygon>
            <polygon id="Shape" fill="#CBBFD9" points="2440 81 2510 121 2510 201 2440 241 2370 201 2370 121"></polygon>
            <polygon id="Shape" fill="#E0D8E9" points="2660 81 2730 121 2730 201 2660 241 2590 201 2590 121"></polygon>
            <polygon id="Shape" fill="#E0D8E9" points="2880 81 2945 121 2945 201 2880 241 2810 199.73417 2810 121"></polygon>
            <polygon id="Shape" fill="#E0D8E9" points="3095 81 3165 121 3165 201 3095 241 3025 201 3025 121"></polygon>
            <polygon id="Shape" fill="#D6CCE1" points="3315 81 3385 121 3385 201 3315 241 3245 201 3245 121"></polygon>
            <polygon id="Shape" fill="#E0D8E9" points="3535 81 3600 121 3600 201 3535 241 3465 201 3465 121"></polygon>
            <polygon id="Shape" fill="#E0D8E9" points="3750 81 3820 121 3820 201 3750 241 3680 218.841092 3680 121"></polygon>
            <polygon id="Shape" fill="#E0D8E9" points="3970 81 4040 121 4040 201 3970 241 3900 201 3900 121"></polygon>
            <polygon id="Shape" fill="#D6CCE1" points="4185 81 4255 121 4255 201 4185 241 4120 201 4120 118.109193"></polygon>
            <polygon id="Shape" fill="#EAE4F1" points="4405 81 4475 121 4475 193.193726 4405 241 4335 201 4335 121"></polygon>
            <polygon id="Shape" fill="#E0D8E9" points="4625 81 4695 121 4695 201 4625 241 4555 201 4555 121"></polygon>
            <polygon id="Shape" fill="#E0D8E9" points="4840 81 4910 121 4902.52713 201 4841.07792 241 4775 201 4775 121"></polygon>
            <polygon id="Shape" fill="#EAE4F1" points="5060 81 5130 121 5130 201 5060 241 4990 201 4990 121"></polygon>
            <polygon id="Shape" fill="#D6CCE1" points="5280 81 5350 121 5350 201 5280 241 5210 201 5210 121"></polygon>
            <polygon id="Shape" fill="#EAE4F1" points="165.814798 271 220 311 220 391 150 431 80 396.1127 80 311"></polygon>
            <polygon id="Shape" fill="#EAE4F1" points="355.532455 271 440 293.747313 440 391 370 431 300 391 300 311"></polygon>
            <polygon id="Shape" fill="#CBBFD9" points="585 271 656.99498 311 655 391 585 416.260345 515 391 515 311"></polygon>
            <polygon id="Shape" fill="#EAE4F1" points="805 285.338872 861.169646 311 875 391 805 431 735 391 735 311"></polygon>
            <polygon id="Shape" fill="#D6CCE1" points="1005.49344 271 1090 311 1090 391 1038.92371 431 954.475454 391 955 311"></polygon>
            <polygon id="Shape" fill="#EAE4F1" points="1240 271 1310 311 1310 391 1240 431 1170 391 1170 311"></polygon>
            <polygon id="Shape" fill="#CBBFD9" points="1460 271 1530 311 1530 391 1460 431 1390 391 1390 311"></polygon>
            <polygon id="Shape" fill="#EAE4F1" points="1680 271 1745 311 1745 391 1680 431 1610 391 1610 311"></polygon>
            <polygon id="Shape" fill="#CBBFD9" points="1895 271 1965 311 1951.45469 391 1895 431 1825 391 1825 311"></polygon>
            <polygon id="Shape" fill="#EAE4F1" points="2115 271 2185 311 2185 391 2115 431 2045 391 2045 311"></polygon>
            <polygon id="Shape" fill="#D6CCE1" points="2330 271 2400 311 2400 391 2330 431 2265 376.009799 2265 311"></polygon>
            <polygon id="Shape" fill="#CBBFD9" points="2550 271 2620 311 2620 391 2561.60134 425.203836 2480 391 2480 311"></polygon>
            <polygon id="Shape" fill="#D6CCE1" points="2770 271 2840 311 2840 391 2770 431 2700 391 2700 311"></polygon>
            <polygon id="Shape" fill="#E0D8E9" points="2985 271 3055 311 3055 391 2985 431 2920 391 2920 311"></polygon>
            <polygon id="Shape" fill="#D6CCE1" points="3205 271 3275 311 3275 395.963076 3220.90139 431 3138.75634 391 3135 311"></polygon>
            <polygon id="Shape" fill="#EAE4F1" points="3419.87642 288.879318 3495 311 3495 391 3425 431 3355 391 3361.60075 311"></polygon>
            <polygon id="Shape" fill="#E0D8E9" points="3640 271 3710 305.936889 3710 391 3640 431 3575 391 3575 311"></polygon>
            <polygon id="Shape" fill="#E0D8E9" points="3860 271 3930 311 3930 391 3860 431 3790 391 3790 311"></polygon>
            <polygon id="Shape" fill="#EAE4F1" points="4080 271 4150 311 4150 391 4080 431 4010 391 4010 311"></polygon>
            <polygon id="Shape" fill="#E0D8E9" points="4295 271 4365 311 4365 391 4295 450.438921 4225 409.937166 4225 311"></polygon>
            <polygon id="Shape" fill="#D6CCE1" points="4515 271 4585 311 4585 391 4515 431 4433.70381 391 4445 311"></polygon>
            <polygon id="Shape" fill="#CBBFD9" points="4735 271 4800 311 4800 391 4735 431 4677.54732 391 4665 311"></polygon>
            <polygon id="Shape" fill="#EAE4F1" points="4950 271 5020 311 5020 391 4962.44617 431 4880 391 4880 311"></polygon>
            <polygon id="Shape" fill="#CBBFD9" points="5170 257.187852 5240 311 5240 391 5170 431 5100 391 5100 311"></polygon>
            <polygon id="Shape" fill="#CBBFD9" points="5390 276.181631 5455 311 5440.18759 391 5390 446.683365 5320 391 5320 311"></polygon>
            <polygon id="Shape" fill="#EAE4F1" points="150 51 62.1171524 11 40 81 108.386128 121"></polygon>
            <polygon id="Shape" fill="#D6CCE1" points="370 51 300 11 260 81 330 121"></polygon>
            <polygon id="Shape" fill="#E0D8E9" points="585 51 515 11 475 81 545 121"></polygon>
            <polygon id="Shape" fill="#EAE4F1" points="805 51 735 11 695 81 765 121"></polygon>
            <polygon id="Shape" fill="#CBBFD9" points="1025 51 955 11 915 81 985 121"></polygon>
            <polygon id="Shape" fill="#D6CCE1" points="1251.98051 51 1170 11 1130 81 1200 121"></polygon>
            <polygon id="Shape" fill="#E0D8E9" points="1460 51 1390 11 1350 81 1420 121"></polygon>
            <polygon id="Shape" fill="#EAE4F1" points="1680 41.5569497 1610 11 1570 81 1640 121"></polygon>
            <polygon id="Shape" fill="#EAE4F1" points="1895 39.4569231 1825 11 1785 81 1855 121"></polygon>
            <polygon id="Shape" fill="#E0D8E9" points="2115 51 2045 11 2017.99683 81 2075 121"></polygon>
            <polygon id="Shape" fill="#CBBFD9" points="2330 51 2265 11 2225 81 2290 121"></polygon>
            <polygon id="Shape" fill="#CBBFD9" points="2550 51 2480 11 2440 81 2510 121"></polygon>
            <polygon id="Shape" fill="#D6CCE1" points="2770 51 2700 24.3998088 2660 81 2730 121"></polygon>
            <polygon id="Shape" fill="#E0D8E9" points="2978.27721 51 2920 11 2880 81 2945 121"></polygon>
            <polygon id="Shape" fill="#E0D8E9" points="3205 51 3135 11 3095 81 3165 121"></polygon>
            <polygon id="Shape" fill="#E0D8E9" points="3425 51 3355 11 3315 81 3385 121"></polygon>
            <polygon id="Shape" fill="#E0D8E9" points="3640 51 3579.94005 11 3535 81 3600 121"></polygon>
            <polygon id="Shape" fill="#EAE4F1" points="3860 51 3790 11 3750 81 3820 121"></polygon>
            <polygon id="Shape" fill="#EAE4F1" points="4080 51 4010 11 3970 81 4040 121"></polygon>
            <polygon id="Shape" fill="#D6CCE1" points="4307.33392 51 4225 11 4185 81 4255 121"></polygon>
            <polygon id="Shape" fill="#E0D8E9" points="4515 48.8681605 4445 11 4405 81 4475 121"></polygon>
            <polygon id="Shape" fill="#EAE4F1" points="4735 57.1005684 4665 11 4625 81 4695 121"></polygon>
            <polygon id="Shape" fill="#CBBFD9" points="4950 51 4880 11 4840 81 4910 121"></polygon>
            <polygon id="Shape" fill="#E0D8E9" points="5170 51 5100 11 5060 81 5130 121"></polygon>
            <polygon id="Shape" fill="#E0D8E9" points="5390 51 5320 11 5280 81 5350 121"></polygon>
            <polygon id="Shape" fill="#D6CCE1" points="260 241 190 201 165.814798 271 220 311"></polygon>
            <polygon id="Shape" fill="#D6CCE1" points="190 201 180.023644 121 108.386128 121 110 201"></polygon>
            <polygon id="Shape" fill="#D6CCE1" points="180.023644 121 260 81 220 11 150 51"></polygon>
            <polygon id="Shape" fill="#D6CCE1" points="475 241 410 201 355.532455 271 435 311"></polygon>
            <polygon id="Shape" fill="#CBBFD9" points="410 201 410 121 330 121 330 201"></polygon>
            <polygon id="Shape" fill="#EAE4F1" points="410 121 475 81 435 11 370 51"></polygon>
            <polygon id="Shape" fill="#E0D8E9" points="695 241 625 201 585 271 656.99498 311"></polygon>
            <polygon id="Shape" fill="#E0D8E9" points="625 201 625 121 545 121 545 201"></polygon>
            <polygon id="Shape" fill="#CBBFD9" points="625 121 695 81 655 11 585 51"></polygon>
            <polygon id="Shape" fill="#EAE4F1" points="915 241 845 201 805 285.338872 861.169646 311"></polygon>
            <polygon id="Shape" fill="#D6CCE1" points="845 201 845 121 765 121 765 201"></polygon>
            <polygon id="Shape" fill="#EAE4F1" points="845 121 915 81 862.643953 11 805 51"></polygon>
            <polygon id="Shape" fill="#CBBFD9" points="1130.19172 241 1065 201 1005.49344 271 1090 311"></polygon>
            <polygon id="Shape" fill="#CBBFD9" points="1065 201 1065 121 985 121 985 201"></polygon>
            <polygon id="Shape" fill="#CBBFD9" points="1065 121 1130 81 1090 11 1025 51"></polygon>
            <polygon id="Shape" fill="#D6CCE1" points="1350 241 1280 201 1240 271 1310 311"></polygon>
            <polygon id="Shape" fill="#CBBFD9" points="1280 201 1280 121 1200 121 1200 201"></polygon>
            <polygon id="Shape" fill="#E0D8E9" points="1280 121 1350 81 1310 14.2537426 1251.98051 51"></polygon>
            <polygon id="Shape" fill="#EAE4F1" points="1574.10417 241 1500 201 1460 271 1530 311"></polygon>
            <polygon id="Shape" fill="#E0D8E9" points="1500 201 1500 121 1420 121 1420 201"></polygon>
            <polygon id="Shape" fill="#E0D8E9" points="1500 121 1570 81 1530 11 1460 51"></polygon>
            <polygon id="Shape" fill="#CBBFD9" points="1785 241 1720 201 1680 271 1745 311"></polygon>
            <polygon id="Shape" fill="#D6CCE1" points="1720 201 1720 121 1640 121 1640 183.606718"></polygon>
            <polygon id="Shape" fill="#E0D8E9" points="1720 121 1785 81 1745 11 1680 41.5569497"></polygon>
            <polygon id="Shape" fill="#EAE4F1" points="2007.82177 241 1935 220.825293 1895 271 1965 311"></polygon>
            <polygon id="Shape" fill="#D6CCE1" points="1935 220.825293 1935 121 1855 121 1855 201"></polygon>
            <polygon id="Shape" fill="#CBBFD9" points="1935 121 2017.99683 81 1965 11 1895 39.4569231"></polygon>
            <polygon id="Shape" fill="#EAE4F1" points="2225 241 2155 201 2115 271 2185 311"></polygon>
            <polygon id="Shape" fill="#EAE4F1" points="2155 201 2155 121 2075 121 2075 201"></polygon>
            <polygon id="Shape" fill="#E0D8E9" points="2155 121 2225 81 2203.63891 11 2115 51"></polygon>
            <polygon id="Shape" fill="#CBBFD9" points="2440 241 2370 201 2330 271 2400 311"></polygon>
            <polygon id="Shape" fill="#E0D8E9" points="2370 201 2370 121 2290 121 2290 201"></polygon>
            <polygon id="Shape" fill="#E0D8E9" points="2370 121 2440 81 2400 11 2330 51"></polygon>
            <polygon id="Shape" fill="#EAE4F1" points="2660 241 2590 201 2550 271 2620 311"></polygon>
            <polygon id="Shape" fill="#E0D8E9" points="2590 201 2590 121 2510 121 2510 201"></polygon>
            <polygon id="Shape" fill="#EAE4F1" points="2590 121 2660 81 2620 11 2550 51"></polygon>
            <polygon id="Shape" fill="#EAE4F1" points="2880 241 2810 199.73417 2770 271 2840 311"></polygon>
            <polygon id="Shape" fill="#CBBFD9" points="2810 199.73417 2810 121 2730 121 2730 201"></polygon>
            <polygon id="Shape" fill="#EAE4F1" points="2810 121 2880 81 2840 11 2770 51"></polygon>
            <polygon id="Shape" fill="#D6CCE1" points="3095 241 3025 201 2985 271 3055 311"></polygon>
            <polygon id="Shape" fill="#EAE4F1" points="3025 201 3025 121 2945 121 2945 201"></polygon>
            <polygon id="Shape" fill="#E0D8E9" points="3025 121 3095 81 3055 11 2978.27721 51"></polygon>
            <polygon id="Shape" fill="#E0D8E9" points="3315 241 3245 201 3205 271 3275 311"></polygon>
            <polygon id="Shape" fill="#CBBFD9" points="3245 201 3245 121 3165 121 3165 201"></polygon>
            <polygon id="Shape" fill="#E0D8E9" points="3245 121 3315 81 3275 11 3205 51"></polygon>
            <polygon id="Shape" fill="#CBBFD9" points="3535 241 3465 201 3419.87642 288.879318 3495 311"></polygon>
            <polygon id="Shape" fill="#EAE4F1" points="3465 201 3465 121 3385 121 3385 201"></polygon>
            <polygon id="Shape" fill="#D6CCE1" points="3465 121 3535 81 3495 11 3425 51"></polygon>
            <polygon id="Shape" fill="#CBBFD9" points="3750 241 3680 218.841092 3640 271 3710 305.936889"></polygon>
            <polygon id="Shape" fill="#EAE4F1" points="3680 218.841092 3680 121 3600 121 3600 201"></polygon>
            <polygon id="Shape" fill="#CBBFD9" points="3680 121 3750 81 3710 11 3640 51"></polygon>
            <polygon id="Shape" fill="#EAE4F1" points="3970 241 3900 201 3860 271 3930 311"></polygon>
            <polygon id="Shape" fill="#E0D8E9" points="3900 201 3900 121 3820 121 3820 201"></polygon>
            <polygon id="Shape" fill="#D6CCE1" points="3900 121 3970 81 3930 11 3860 51"></polygon>
            <polygon id="Shape" fill="#CBBFD9" points="4185 241 4120 201 4080 271 4145 311"></polygon>
            <polygon id="Shape" fill="#E0D8E9" points="4120 201 4120 118.109193 4040 121 4040 201"></polygon>
            <polygon id="Shape" fill="#EAE4F1" points="4120 118.109193 4185 81 4145 11 4080 51"></polygon>
            <polygon id="Shape" fill="#E0D8E9" points="4405 241 4335 201 4295 271 4365 311"></polygon>
            <polygon id="Shape" fill="#D6CCE1" points="4335 201 4335 121 4255 121 4255 201"></polygon>
            <polygon id="Shape" fill="#E0D8E9" points="4335 121 4405 81 4365 11 4307.33392 51"></polygon>
            <polygon id="Shape" fill="#D6CCE1" points="4625 241 4555 201 4515 271 4585 311"></polygon>
            <polygon id="Shape" fill="#EAE4F1" points="4555 201 4555 121 4475 121 4475 193.193726"></polygon>
            <polygon id="Shape" fill="#CBBFD9" points="4555 121 4625 81 4585 11 4515 48.8681605"></polygon>
            <polygon id="Shape" fill="#CBBFD9" points="4841.07792 241 4775 201 4735 271 4800 311"></polygon>
            <polygon id="Shape" fill="#E0D8E9" points="4775 201 4775 121 4695 121 4695 201"></polygon>
            <polygon id="Shape" fill="#EAE4F1" points="4775 121 4840 81 4800 0.172642312 4735 57.1005684"></polygon>
            <polygon id="Shape" fill="#D6CCE1" points="5060 241 4990 201 4950 271 5020 311"></polygon>
            <polygon id="Shape" fill="#D6CCE1" points="4990 201 4990 121 4910 121 4902.52713 201"></polygon>
            <polygon id="Shape" fill="#CBBFD9" points="4990 121 5060 81 5020 11 4950 51"></polygon>
            <polygon id="Shape" fill="#D6CCE1" points="5280 241 5210 201 5170 257.187852 5240 311"></polygon>
            <polygon id="Shape" fill="#E0D8E9" points="5210 201 5210 121 5130 121 5130 201"></polygon>
            <polygon id="Shape" fill="#E0D8E9" points="5210 121 5280 81 5240 11 5170 51"></polygon>
            <polygon id="Shape" fill="#EAE4F1" points="80 396.1127 80 311 0 311 0 391"></polygon>
            <polygon id="Shape" fill="#CBBFD9" points="80 311 165.814798 271 110 201 40 241"></polygon>
            <polygon id="Shape" fill="#CBBFD9" points="300 391 300 311 220 311 220 391"></polygon>
            <polygon id="Shape" fill="#CBBFD9" points="300 311 355.532455 271 330 201 260 241"></polygon>
            <polygon id="Shape" fill="#CBBFD9" points="515 391 515 311 435 311 435 391"></polygon>
            <polygon id="Shape" fill="#EAE4F1" points="515 311 585 271 545 201 475 241"></polygon>
            <polygon id="Shape" fill="#D6CCE1" points="735 391 735 311 656.99498 311 655 391"></polygon>
            <polygon id="Shape" fill="#EAE4F1" points="735 311 805 285.338872 765 201 695 241"></polygon>
            <polygon id="Shape" fill="#E0D8E9" points="954.475454 391 955 311 861.169646 311 875 391"></polygon>
            <polygon id="Shape" fill="#D6CCE1" points="955 311 1005.49344 271 985 201 915 241"></polygon>
            <polygon id="Shape" fill="#D6CCE1" points="1170 391 1170 311 1090 311 1090 391"></polygon>
            <polygon id="Shape" fill="#D6CCE1" points="1170 311 1240 271 1200 201 1130.19172 241"></polygon>
            <polygon id="Shape" fill="#E0D8E9" points="1390 391 1390 311 1310 311 1310 391"></polygon>
            <polygon id="Shape" fill="#E0D8E9" points="1390 311 1460 271 1420 201 1350 241"></polygon>
            <polygon id="Shape" fill="#CBBFD9" points="1610 391 1610 311 1530 311 1530 391"></polygon>
            <polygon id="Shape" fill="#E0D8E9" points="1610 311 1680 271 1640 183.606718 1574.10417 241"></polygon>
            <polygon id="Shape" fill="#D6CCE1" points="1825 391 1825 311 1745 311 1745 391"></polygon>
            <polygon id="Shape" fill="#E0D8E9" points="1825 311 1895 271 1855 201 1785 241"></polygon>
            <polygon id="Shape" fill="#CBBFD9" points="2045 391 2045 311 1965 311 1951.45469 391"></polygon>
            <polygon id="Shape" fill="#E0D8E9" points="2045 311 2115 271 2075 201 2007.82177 241"></polygon>
            <polygon id="Shape" fill="#CBBFD9" points="2330 431 2265 376.009799 2225 461 2290 501"></polygon>
            <polygon id="Shape" fill="#D6CCE1" points="2265 376.009799 2265 311 2185 311 2185 391"></polygon>
            <polygon id="Shape" fill="#EAE4F1" points="2265 311 2330 271 2290 201 2225 241"></polygon>
            <polygon id="Shape" fill="#EAE4F1" points="2480 391 2480 311 2400 311 2400 391"></polygon>
            <polygon id="Shape" fill="#CBBFD9" points="2480 311 2550 271 2510 201 2440 241"></polygon>
            <polygon id="Shape" fill="#EAE4F1" points="2700 391 2700 311 2620 311 2620 391"></polygon>
            <polygon id="Shape" fill="#D6CCE1" points="2700 311 2770 271 2730 201 2660 241"></polygon>
            <polygon id="Shape" fill="#D6CCE1" points="2920 391 2920 311 2840 311 2840 391"></polygon>
            <polygon id="Shape" fill="#CBBFD9" points="2920 311 2985 271 2945 201 2880 241"></polygon>
            <polygon id="Shape" fill="#E0D8E9" points="3138.75634 391 3135 311 3055 311 3055 391"></polygon>
            <polygon id="Shape" fill="#E0D8E9" points="3135 311 3205 271 3165 201 3095 241"></polygon>
            <polygon id="Shape" fill="#E0D8E9" points="3355 391 3361.60075 311 3275 311 3275 395.963076"></polygon>
            <polygon id="Shape" fill="#E0D8E9" points="3361.60075 311 3419.87642 288.879318 3385 201 3315 241"></polygon>
            <polygon id="Shape" fill="#EAE4F1" points="3575 391 3575 311 3495 311 3495 391"></polygon>
            <polygon id="Shape" fill="#D6CCE1" points="3575 311 3640 271 3600 201 3535 241"></polygon>
            <polygon id="Shape" fill="#CBBFD9" points="3790 391 3790 311 3710 305.936889 3710 391"></polygon>
            <polygon id="Shape" fill="#EAE4F1" points="3790 311 3860 271 3820 201 3750 241"></polygon>
            <polygon id="Shape" fill="#E0D8E9" points="4010 391 4010 311 3930 311 3930 391"></polygon>
            <polygon id="Shape" fill="#EAE4F1" points="4010 311 4080 271 4040 201 3970 241"></polygon>
            <polygon id="Shape" fill="#E0D8E9" points="4225 409.937166 4225 311 4145 311 4145 391"></polygon>
            <polygon id="Shape" fill="#E0D8E9" points="4225 311 4295 271 4255 201 4185 241"></polygon>
            <polygon id="Shape" fill="#CBBFD9" points="4433.70381 391 4445 311 4365 311 4365 391"></polygon>
            <polygon id="Shape" fill="#EAE4F1" points="4445 311 4515 271 4475 193.193726 4405 241"></polygon>
            <polygon id="Shape" fill="#D6CCE1" points="4677.54732 391 4665 311 4585 311 4585 391"></polygon>
            <polygon id="Shape" fill="#D6CCE1" points="4665 311 4735 271 4695 201 4625 241"></polygon>
            <polygon id="Shape" fill="#CBBFD9" points="4880 391 4880 311 4800 311 4800 391"></polygon>
            <polygon id="Shape" fill="#CBBFD9" points="4880 311 4950 271 4902.52713 201 4841.07792 241"></polygon>
            <polygon id="Shape" fill="#EAE4F1" points="5100 391 5100 311 5020 311 5020 391"></polygon>
            <polygon id="Shape" fill="#EAE4F1" points="5100 311 5170 257.187852 5130 201 5060 241"></polygon>
            <polygon id="Shape" fill="#D6CCE1" points="5320 391 5320 311 5240 311 5240 391"></polygon>
            <polygon id="Shape" fill="#EAE4F1" points="5320 311 5390 276.181631 5350 201 5280 241"></polygon>
            <polygon id="Shape" fill="#E0D8E9" points="330 121 410 121 370 51"></polygon>
            <polygon id="Shape" fill="#D6CCE1" points="545 121 625 121 585 51"></polygon>
            <polygon id="Shape" fill="#E0D8E9" points="765 121 845 121 805 51"></polygon>
            <polygon id="Shape" fill="#D6CCE1" points="985 121 1065 121 1025 51"></polygon>
            <polygon id="Shape" fill="#E0D8E9" points="1200 121 1280 121 1251.98051 51"></polygon>
            <polygon id="Shape" fill="#E0D8E9" points="1420 121 1500 121 1460 51"></polygon>
            <polygon id="Shape" fill="#D6CCE1" points="1640 121 1720 121 1680 41.5569497"></polygon>
            <polygon id="Shape" fill="#CBBFD9" points="1855 121 1935 121 1895 39.4569231"></polygon>
            <polygon id="Shape" fill="#E0D8E9" points="2075 121 2155 121 2115 51"></polygon>
            <polygon id="Shape" fill="#E0D8E9" points="2295 121 2375 121 2335 51"></polygon>
            <polygon id="Shape" fill="#D6CCE1" points="2510 121 2590 121 2550 51"></polygon>
            <polygon id="Shape" fill="#D6CCE1" points="2730 121 2810 121 2770 51"></polygon>
            <polygon id="Shape" fill="#E0D8E9" points="2945 121 3025 121 2978.27721 51"></polygon>
            <polygon id="Shape" fill="#CBBFD9" points="3165 121 3245 121 3205 51"></polygon>
            <polygon id="Shape" fill="#CBBFD9" points="3385 121 3465 121 3425 51"></polygon>
            <polygon id="Shape" fill="#EAE4F1" points="3600 121 3680 121 3640 51"></polygon>
            <polygon id="Shape" fill="#D6CCE1" points="3820 121 3900 121 3860 51"></polygon>
            <polygon id="Shape" fill="#EAE4F1" points="4040 121 4120 118.109193 4080 51"></polygon>
            <polygon id="Shape" fill="#D6CCE1" points="4255 121 4335 121 4307.33392 51"></polygon>
            <polygon id="Shape" fill="#E0D8E9" points="4475 121 4555 121 4515 48.8681605"></polygon>
            <polygon id="Shape" fill="#E0D8E9" points="4695 121 4775 121 4735 57.1005684"></polygon>
            <polygon id="Shape" fill="#E0D8E9" points="4910 121 4990 121 4950 51"></polygon>
            <polygon id="Shape" fill="#CBBFD9" points="5130 121 5210 121 5170 51"></polygon>
            <polygon id="Shape" fill="#E0D8E9" points="5350 121 5430 121 5390 51"></polygon>
            <polygon id="Shape" fill="#E0D8E9" points="165.814798 271 190 201 110 201"></polygon>
            <polygon id="Shape" fill="#CBBFD9" points="220 311 300 311 260 241"></polygon>
            <polygon id="Shape" fill="#EAE4F1" points="355.532455 271 410 201 330 201"></polygon>
            <polygon id="Shape" fill="#CBBFD9" points="440 293.747313 520 311 480 252.586917"></polygon>
            <polygon id="Shape" fill="#E0D8E9" points="585 271 625 201 545 201"></polygon>
            <polygon id="Shape" fill="#CBBFD9" points="656.99498 311 735 311 695 241"></polygon>
            <polygon id="Shape" fill="#E0D8E9" points="805 285.338872 845 201 765 201"></polygon>
            <polygon id="Shape" fill="#CBBFD9" points="861.169646 311 955 311 915 241"></polygon>
            <polygon id="Shape" fill="#E0D8E9" points="1005.49344 271 1065 201 985 201"></polygon>
            <polygon id="Shape" fill="#E0D8E9" points="1090 311 1170 311 1130.19172 241"></polygon>
            <polygon id="Shape" fill="#EAE4F1" points="1240 271 1280 201 1200 201"></polygon>
            <polygon id="Shape" fill="#EAE4F1" points="1310 311 1390 311 1350 241"></polygon>
            <polygon id="Shape" fill="#E0D8E9" points="1460 271 1500 201 1420 201"></polygon>
            <polygon id="Shape" fill="#E0D8E9" points="1530 311 1610 311 1574.10417 241"></polygon>
            <polygon id="Shape" fill="#EAE4F1" points="1680 271 1720 201 1640 183.606718"></polygon>
            <polygon id="Shape" fill="#E0D8E9" points="1745 311 1825 311 1785 241"></polygon>
            <polygon id="Shape" fill="#E0D8E9" points="1895 271 1935 220.825293 1855 201"></polygon>
            <polygon id="Shape" fill="#CBBFD9" points="1965 311 2045 311 2007.82177 241"></polygon>
            <polygon id="Shape" fill="#D6CCE1" points="2115 271 2155 201 2075 201"></polygon>
            <polygon id="Shape" fill="#D6CCE1" points="2185 311 2265 311 2225 241"></polygon>
            <polygon id="Shape" fill="#EAE4F1" points="2330 271 2370 201 2290 201"></polygon>
            <polygon id="Shape" fill="#D6CCE1" points="2400 311 2480 311 2440 241"></polygon>
            <polygon id="Shape" fill="#EAE4F1" points="2550 271 2590 201 2510 201"></polygon>
            <polygon id="Shape" fill="#EAE4F1" points="2620 311 2700 311 2660 241"></polygon>
            <polygon id="Shape" fill="#E0D8E9" points="2770 271 2810 199.73417 2730 201"></polygon>
            <polygon id="Shape" fill="#EAE4F1" points="2840 311 2920 311 2880 241"></polygon>
            <polygon id="Shape" fill="#E0D8E9" points="2985 271 3025 201 2945 201"></polygon>
            <polygon id="Shape" fill="#EAE4F1" points="3055 311 3135 311 3095 241"></polygon>
            <polygon id="Shape" fill="#CBBFD9" points="3205 271 3245 201 3165 201"></polygon>
            <polygon id="Shape" fill="#CBBFD9" points="3275 311 3361.60075 311 3315 241"></polygon>
            <polygon id="Shape" fill="#CBBFD9" points="3419.87642 288.879318 3465 201 3385 201"></polygon>
            <polygon id="Shape" fill="#EAE4F1" points="3495 311 3575 311 3535 241"></polygon>
            <polygon id="Shape" fill="#CBBFD9" points="3640 271 3680 218.841092 3600 201"></polygon>
            <polygon id="Shape" fill="#D6CCE1" points="3710 305.936889 3790 311 3750 241"></polygon>
            <polygon id="Shape" fill="#EAE4F1" points="3860 271 3900 201 3820 201"></polygon>
            <polygon id="Shape" fill="#D6CCE1" points="3930 311 4010 311 3970 241"></polygon>
            <polygon id="Shape" fill="#D6CCE1" points="4080 271 4120 201 4040 201"></polygon>
            <polygon id="Shape" fill="#D6CCE1" points="4150 311 4230 311 4190 241"></polygon>
            <polygon id="Shape" fill="#D6CCE1" points="4295 271 4335 201 4255 201"></polygon>
            <polygon id="Shape" fill="#CBBFD9" points="4365 311 4445 311 4405 241"></polygon>
            <polygon id="Shape" fill="#EAE4F1" points="4515 271 4555 201 4475 193.193726"></polygon>
            <polygon id="Shape" fill="#E0D8E9" points="4585 311 4665 311 4625 241"></polygon>
            <polygon id="Shape" fill="#CBBFD9" points="4735 271 4775 201 4695 201"></polygon>
            <polygon id="Shape" fill="#E0D8E9" points="4800 311 4880 311 4841.07792 241"></polygon>
            <polygon id="Shape" fill="#D6CCE1" points="4950 271 4990 201 4902.52713 201"></polygon>
            <polygon id="Shape" fill="#CBBFD9" points="5020 311 5100 311 5060 241"></polygon>
            <polygon id="Shape" fill="#D6CCE1" points="5170 257.187852 5210 201 5130 201"></polygon>
            <polygon id="Shape" fill="#EAE4F1" points="5240 311 5320 311 5280 241"></polygon>
            <polygon id="Shape" fill="#CBBFD9" points="5390 276.181631 5430 201 5350 201"></polygon>
            <polygon id="Shape" fill="#D6CCE1" points="5455 311 5554.67711 311 5495 241"></polygon>
            <polygon id="Shape" fill="#D6CCE1" points="2225 461 2265 376.009799 2185 391"></polygon>
            <polygon id="Shape" fill="#EAE4F1" points="260 81 330 121 260 161"></polygon>
            <polygon id="Shape" fill="#E0D8E9" points="330 201 260 241 260 161"></polygon>
            <polygon id="Shape" fill="#CBBFD9" points="190 201 180.023644 121 260 161"></polygon>
            <polygon id="Shape" fill="#E0D8E9" points="475 81 545 121 475 161"></polygon>
            <polygon id="Shape" fill="#EAE4F1" points="545 201 475 241 475 161"></polygon>
            <polygon id="Shape" fill="#CBBFD9" points="410 201 410 121 475 161"></polygon>
            <polygon id="Shape" fill="#E0D8E9" points="695 81 765 121 695 161"></polygon>
            <polygon id="Shape" fill="#D6CCE1" points="765 201 695 241 695 161"></polygon>
            <polygon id="Shape" fill="#CBBFD9" points="625 201 625 121 695 161"></polygon>
            <polygon id="Shape" fill="#CBBFD9" points="915 81 985 121 915 161"></polygon>
            <polygon id="Shape" fill="#E0D8E9" points="985 201 915 241 915 161"></polygon>
            <polygon id="Shape" fill="#D6CCE1" points="845 201 845 121 915 161"></polygon>
            <polygon id="Shape" fill="#D6CCE1" points="1130 81 1200 121 1130 161"></polygon>
            <polygon id="Shape" fill="#EAE4F1" points="1200 201 1130.19172 241 1130 161"></polygon>
            <polygon id="Shape" fill="#CBBFD9" points="1065 201 1065 121 1130 161"></polygon>
            <polygon id="Shape" fill="#D6CCE1" points="1350 81 1420 121 1350 161"></polygon>
            <polygon id="Shape" fill="#EAE4F1" points="1420 201 1350 241 1350 161"></polygon>
            <polygon id="Shape" fill="#E0D8E9" points="1280 201 1280 121 1350 161"></polygon>
            <polygon id="Shape" fill="#CBBFD9" points="1570 81 1640 121 1570 161"></polygon>
            <polygon id="Shape" fill="#E0D8E9" points="1640 183.606718 1574.10417 241 1570 161"></polygon>
            <polygon id="Shape" fill="#D6CCE1" points="1500 201 1500 121 1570 161"></polygon>
            <polygon id="Shape" fill="#CBBFD9" points="1785 81 1855 121 1785 161"></polygon>
            <polygon id="Shape" fill="#E0D8E9" points="1855 201 1785 241 1785 161"></polygon>
            <polygon id="Shape" fill="#E0D8E9" points="1720 201 1720 121 1785 161"></polygon>
            <polygon id="Shape" fill="#D6CCE1" points="2017.99683 81 2075 121 2005 177.055981"></polygon>
            <polygon id="Shape" fill="#EAE4F1" points="2075 201 2007.82177 241 2005 177.055981"></polygon>
            <polygon id="Shape" fill="#E0D8E9" points="1935 220.825293 1935 121 2005 177.055981"></polygon>
            <polygon id="Shape" fill="#D6CCE1" points="2225 81 2295 121 2225 161"></polygon>
            <polygon id="Shape" fill="#E0D8E9" points="2295 201 2225 241 2225 161"></polygon>
            <polygon id="Shape" fill="#E0D8E9" points="2155 201 2155 121 2225 161"></polygon>
            <polygon id="Shape" fill="#D6CCE1" points="2440 81 2510 121 2440 161"></polygon>
            <polygon id="Shape" fill="#E0D8E9" points="2510 201 2440 241 2440 161"></polygon>
            <polygon id="Shape" fill="#E0D8E9" points="2370 201 2370 121 2440 161"></polygon>
            <polygon id="Shape" fill="#EAE4F1" points="2660 81 2730 121 2660 161"></polygon>
            <polygon id="Shape" fill="#E0D8E9" points="2730 201 2660 241 2660 161"></polygon>
            <polygon id="Shape" fill="#EAE4F1" points="2590 201 2590 121 2660 161"></polygon>
            <polygon id="Shape" fill="#E0D8E9" points="2880 81 2945 121 2880 161"></polygon>
            <polygon id="Shape" fill="#D6CCE1" points="2945 201 2880 241 2880 161"></polygon>
            <polygon id="Shape" fill="#D6CCE1" points="2810 199.73417 2810 121 2880 161"></polygon>
            <polygon id="Shape" fill="#D6CCE1" points="3095 81 3165 121 3095 161"></polygon>
            <polygon id="Shape" fill="#CBBFD9" points="3165 201 3095 241 3095 161"></polygon>
            <polygon id="Shape" fill="#EAE4F1" points="3025 201 3025 121 3095 161"></polygon>
            <polygon id="Shape" fill="#D6CCE1" points="3315 81 3385 121 3315 161"></polygon>
            <polygon id="Shape" fill="#CBBFD9" points="3385 201 3315 241 3315 161"></polygon>
            <polygon id="Shape" fill="#EAE4F1" points="3245 201 3245 121 3315 161"></polygon>
            <polygon id="Shape" fill="#E0D8E9" points="3535 81 3600 121 3535 161"></polygon>
            <polygon id="Shape" fill="#EAE4F1" points="3600 201 3535 241 3535 161"></polygon>
            <polygon id="Shape" fill="#EAE4F1" points="3465 201 3465 121 3535 161"></polygon>
            <polygon id="Shape" fill="#CBBFD9" points="3750 81 3820 121 3755.00804 161"></polygon>
            <polygon id="Shape" fill="#E0D8E9" points="3820 201 3750 241 3755.00804 161"></polygon>
            <polygon id="Shape" fill="#D6CCE1" points="3680 218.841092 3680 121 3755.00804 161"></polygon>
            <polygon id="Shape" fill="#D6CCE1" points="3970 81 4040 121 3955.56341 161"></polygon>
            <polygon id="Shape" fill="#CBBFD9" points="4040 201 3970 241 3955.56341 161"></polygon>
            <polygon id="Shape" fill="#E0D8E9" points="3900 201 3900 121 3955.56341 161"></polygon>
            <polygon id="Shape" fill="#D6CCE1" points="4185 81 4255 121 4185 161"></polygon>
            <polygon id="Shape" fill="#D6CCE1" points="4255 201 4185 241 4185 161"></polygon>
            <polygon id="Shape" fill="#EAE4F1" points="4120 201 4120 118.109193 4185 161"></polygon>
            <polygon id="Shape" fill="#E0D8E9" points="4405 81 4475 121 4405 161"></polygon>
            <polygon id="Shape" fill="#EAE4F1" points="4475 193.193726 4405 241 4405 161"></polygon>
            <polygon id="Shape" fill="#E0D8E9" points="4335 201 4335 121 4405 161"></polygon>
            <polygon id="Shape" fill="#EAE4F1" points="4625 81 4695 121 4625 161"></polygon>
            <polygon id="Shape" fill="#D6CCE1" points="4695 201 4625 241 4625 161"></polygon>
            <polygon id="Shape" fill="#E0D8E9" points="4555 201 4555 121 4625 161"></polygon>
            <polygon id="Shape" fill="#D6CCE1" points="4840 81 4910 121 4840 161"></polygon>
            <polygon id="Shape" fill="#EAE4F1" points="4902.52713 201 4841.07792 241 4840 161"></polygon>
            <polygon id="Shape" fill="#EAE4F1" points="4775 201 4775 121 4840 161"></polygon>
            <polygon id="Shape" fill="#EAE4F1" points="5060 81 5130 121 5060 161"></polygon>
            <polygon id="Shape" fill="#CBBFD9" points="5130 201 5060 241 5060 161"></polygon>
            <polygon id="Shape" fill="#EAE4F1" points="4990 201 4990 121 5060 161"></polygon>
            <polygon id="Shape" fill="#D6CCE1" points="5280 81 5350 121 5280 161"></polygon>
            <polygon id="Shape" fill="#CBBFD9" points="5350 201 5280 241 5280 161"></polygon>
            <polygon id="Shape" fill="#D6CCE1" points="5210 201 5210 121 5280 161"></polygon>
            <polygon id="Shape" fill="#EAE4F1" points="165.814798 271 220 311 136.711361 332.85737"></polygon>
            <polygon id="Shape" fill="#D6CCE1" points="220 391 150 431 136.711361 332.85737"></polygon>
            <polygon id="Shape" fill="#EAE4F1" points="80 396.1127 80 311 136.711361 332.85737"></polygon>
            <polygon id="Shape" fill="#CBBFD9" points="355.532455 271 440 293.747313 370 351"></polygon>
            <polygon id="Shape" fill="#EAE4F1" points="440 391 370 431 370 351"></polygon>
            <polygon id="Shape" fill="#E0D8E9" points="300 391 300 311 370 351"></polygon>
            <polygon id="Shape" fill="#E0D8E9" points="585 271 656.99498 311 585 351"></polygon>
            <polygon id="Shape" fill="#EAE4F1" points="655 391 585 416.260345 585 351"></polygon>
            <polygon id="Shape" fill="#D6CCE1" points="515 391 515 311 585 351"></polygon>
            <polygon id="Shape" fill="#CBBFD9" points="805 285.338872 861.169646 311 805 351"></polygon>
            <polygon id="Shape" fill="#D6CCE1" points="875 391 805 431 805 351"></polygon>
            <polygon id="Shape" fill="#D6CCE1" points="735 391 735 311 805 351"></polygon>
            <polygon id="Shape" fill="#EAE4F1" points="1005.49344 271 1090 311 1025 351"></polygon>
            <polygon id="Shape" fill="#EAE4F1" points="1090 391 1038.92371 431 1025 351"></polygon>
            <polygon id="Shape" fill="#E0D8E9" points="954.475454 391 955 311 1025 351"></polygon>
            <polygon id="Shape" fill="#EAE4F1" points="1240 271 1310 311 1240 351"></polygon>
            <polygon id="Shape" fill="#EAE4F1" points="1310 391 1240 431 1240 351"></polygon>
            <polygon id="Shape" fill="#D6CCE1" points="1170 391 1170 311 1240 351"></polygon>
            <polygon id="Shape" fill="#EAE4F1" points="1460 271 1530 311 1460 351"></polygon>
            <polygon id="Shape" fill="#CBBFD9" points="1530 391 1460 431 1460 351"></polygon>
            <polygon id="Shape" fill="#E0D8E9" points="1390 391 1390 311 1460 351"></polygon>
            <polygon id="Shape" fill="#CBBFD9" points="1680 271 1745 311 1680 351"></polygon>
            <polygon id="Shape" fill="#EAE4F1" points="1745 391 1680 431 1680 351"></polygon>
            <polygon id="Shape" fill="#E0D8E9" points="1610 391 1610 311 1680 351"></polygon>
            <polygon id="Shape" fill="#E0D8E9" points="1895 271 1965 311 1895 351"></polygon>
            <polygon id="Shape" fill="#CBBFD9" points="1951.45469 391 1895 431 1895 351"></polygon>
            <polygon id="Shape" fill="#D6CCE1" points="1825 391 1825 311 1895 351"></polygon>
            <polygon id="Shape" fill="#EAE4F1" points="2115 271 2185 311 2115 351"></polygon>
            <polygon id="Shape" fill="#E0D8E9" points="2185 391 2115 431 2115 351"></polygon>
            <polygon id="Shape" fill="#EAE4F1" points="2045 391 2045 311 2115 351"></polygon>
            <polygon id="Shape" fill="#EAE4F1" points="2330 271 2400 311 2330 351"></polygon>
            <polygon id="Shape" fill="#EAE4F1" points="2400 391 2330 431 2330 351"></polygon>
            <polygon id="Shape" fill="#E0D8E9" points="2265 376.009799 2265 311 2330 351"></polygon>
            <polygon id="Shape" fill="#D6CCE1" points="2550 271 2620 311 2550 351"></polygon>
            <polygon id="Shape" fill="#D6CCE1" points="2620 391 2561.60134 425.203836 2550 351"></polygon>
            <polygon id="Shape" fill="#EAE4F1" points="2480 391 2480 311 2550 351"></polygon>
            <polygon id="Shape" fill="#EAE4F1" points="2770 271 2840 311 2770 351"></polygon>
            <polygon id="Shape" fill="#D6CCE1" points="2840 391 2770 431 2770 351"></polygon>
            <polygon id="Shape" fill="#D6CCE1" points="2700 391 2700 311 2770 351"></polygon>
            <polygon id="Shape" fill="#EAE4F1" points="2985 271 3055 311 2985 351"></polygon>
            <polygon id="Shape" fill="#EAE4F1" points="3055 391 2985 431 2985 351"></polygon>
            <polygon id="Shape" fill="#D6CCE1" points="2920 391 2920 311 2985 351"></polygon>
            <polygon id="Shape" fill="#EAE4F1" points="3205 271 3275 311 3205 351"></polygon>
            <polygon id="Shape" fill="#CBBFD9" points="3275 395.963076 3220.90139 431 3205 351"></polygon>
            <polygon id="Shape" fill="#D6CCE1" points="3138.75634 391 3135 311 3205 351"></polygon>
            <polygon id="Shape" fill="#CBBFD9" points="3419.87642 288.879318 3495 311 3425 351"></polygon>
            <polygon id="Shape" fill="#CBBFD9" points="3495 391 3425 431 3425 351"></polygon>
            <polygon id="Shape" fill="#EAE4F1" points="3355 391 3361.60075 311 3425 351"></polygon>
            <polygon id="Shape" fill="#E0D8E9" points="3640 271 3710 305.936889 3659.09411 351"></polygon>
            <polygon id="Shape" fill="#CBBFD9" points="3710 391 3640 431 3659.09411 351"></polygon>
            <polygon id="Shape" fill="#CBBFD9" points="3575 391 3575 311 3659.09411 351"></polygon>
            <polygon id="Shape" fill="#CBBFD9" points="3860 271 3930 311 3860 351"></polygon>
            <polygon id="Shape" fill="#CBBFD9" points="3930 391 3860 431 3860 351"></polygon>
            <polygon id="Shape" fill="#D6CCE1" points="3790 391 3790 311 3860 351"></polygon>
            <polygon id="Shape" fill="#CBBFD9" points="4080 271 4150 311 4080 351"></polygon>
            <polygon id="Shape" fill="#CBBFD9" points="4150 391 4080 431 4080 351"></polygon>
            <polygon id="Shape" fill="#E0D8E9" points="4010 391 4010 311 4080 351"></polygon>
            <polygon id="Shape" fill="#D6CCE1" points="4295 271 4365 311 4295 351"></polygon>
            <polygon id="Shape" fill="#EAE4F1" points="4365 391 4295 450.438921 4295 351"></polygon>
            <polygon id="Shape" fill="#CBBFD9" points="4225 409.937166 4225 311 4295 351"></polygon>
            <polygon id="Shape" fill="#CBBFD9" points="4515 271 4585 311 4515 351"></polygon>
            <polygon id="Shape" fill="#E0D8E9" points="4585 391 4515 431 4515 351"></polygon>
            <polygon id="Shape" fill="#EAE4F1" points="4433.70381 391 4445 311 4515 351"></polygon>
            <polygon id="Shape" fill="#E0D8E9" points="4735 271 4800 311 4735 351"></polygon>
            <polygon id="Shape" fill="#E0D8E9" points="4800 391 4735 431 4735 351"></polygon>
            <polygon id="Shape" fill="#EAE4F1" points="4677.54732 391 4665 311 4735 351"></polygon>
            <polygon id="Shape" fill="#CBBFD9" points="4950 271 5020 311 4950 351"></polygon>
            <polygon id="Shape" fill="#D6CCE1" points="5020 391 4962.44617 431 4950 351"></polygon>
            <polygon id="Shape" fill="#E0D8E9" points="4880 391 4880 311 4950 351"></polygon>
            <polygon id="Shape" fill="#EAE4F1" points="5170 257.187852 5240 311 5170 351"></polygon>
            <polygon id="Shape" fill="#D6CCE1" points="5240 391 5170 431 5170 351"></polygon>
            <polygon id="Shape" fill="#CBBFD9" points="5100 391 5100 311 5170 351"></polygon>
            <polygon id="Shape" fill="#EAE4F1" points="5390 276.181631 5455 311 5390 351"></polygon>
            <polygon id="Shape" fill="#D6CCE1" points="5440.18759 391 5390 446.683365 5390 351"></polygon>
            <polygon id="Shape" fill="#D6CCE1" points="5320 391 5320 311 5390 351"></polygon>
        </g>
    </g>
</svg>